<svg xmlns="http://www.w3.org/2000/svg" version="1.1" xmlns:xlink="http://www.w3.org/1999/xlink" xmlns:svgjs="http://svgjs.dev/svgjs" width="1500" height="935" viewBox="0 0 1500 935"><g transform="matrix(1,0,0,1,-0.9090909090909918,0.3785425101214628)"><svg viewBox="0 0 396 247" data-background-color="#ffffff" preserveAspectRatio="xMidYMid meet" height="935" width="1500" xmlns="http://www.w3.org/2000/svg" xmlns:xlink="http://www.w3.org/1999/xlink"><g id="tight-bounds" transform="matrix(1,0,0,1,0.2400000000000091,-0.09999999999999432)"><svg viewBox="0 0 395.52 247.2" height="247.2" width="395.52"><g><svg></svg></g><g><svg viewBox="0 0 395.52 247.2" height="247.2" width="395.52"><g transform="matrix(1,0,0,1,75.54432,78.20740798601042)"><svg viewBox="0 0 244.43135999999998 90.78518402797916" height="90.78518402797916" width="244.43135999999998"><g><svg viewBox="0 0 244.43135999999998 90.78518402797916" height="90.78518402797916" width="244.43135999999998"><g><svg viewBox="0 0 330.7918591780979 122.86066653002702" height="90.78518402797916" width="244.43135999999998"><g transform="matrix(1,0,0,1,86.36049917809797,16.980019759215033)"><svg viewBox="0 0 244.43135999999996 88.90062701159695" height="88.90062701159695" width="244.43135999999996"><g id="textblocktransform"><svg viewBox="0 0 244.43135999999996 88.90062701159695" height="88.90062701159695" width="244.43135999999996" id="textblock"><g><svg viewBox="0 0 244.43135999999996 54.26751004600218" height="54.26751004600218" width="244.43135999999996"><g transform="matrix(1,0,0,1,0,0)"><svg width="244.43135999999996" viewBox="1.83 -37.99 222.88 49.49" height="54.26751004600218" data-palette-color="#d55d13"><g class="wordmark-text-0" data-fill-palette-color="primary" id="text-0"><path d="M8.98-32.79L9.99-37.01 24.83-37.01Q26.95-37.01 28.71-36.28 30.47-35.55 31.74-34.29 33.01-33.03 33.7-31.35 34.4-29.66 34.4-27.76L34.4-27.76Q34.4-25.24 33.45-23.1 32.5-20.95 30.65-19.38 28.81-17.82 26.09-16.93 23.36-16.04 19.85-16.04L19.85-16.04 13.82-16.04 11.11-4.2 14.79-4.2 13.84 0 1.83 0 2.78-4.2 6.01-4.2 12.6-32.79 8.98-32.79ZM23.44-32.79L17.65-32.79 14.79-20.24 20.39-20.24Q22.36-20.24 24-20.72 25.63-21.19 26.81-22.11 27.98-23.02 28.61-24.37 29.25-25.71 29.25-27.44L29.25-27.44Q29.25-28.47 28.91-29.43 28.56-30.4 27.86-31.14 27.15-31.88 26.05-32.34 24.95-32.79 23.44-32.79L23.44-32.79ZM61.4-10.35L66.09-7.86Q64.67-5.86 62.94-4.28 61.2-2.71 59.13-1.62 57.05-0.54 54.64 0.04 52.22 0.61 49.44 0.61L49.44 0.61Q46.09 0.61 43.25-0.65 40.4-1.9 38.33-4.13 36.25-6.35 35.07-9.39 33.88-12.43 33.88-15.99L33.88-15.99Q33.88-19.04 34.6-21.85 35.32-24.66 36.64-27.06 37.96-29.47 39.84-31.43 41.72-33.4 44.05-34.79 46.38-36.18 49.11-36.94 51.83-37.7 54.83-37.7L54.83-37.7Q58.98-37.7 62.22-36.02 65.45-34.35 67.53-31.4L67.53-31.4 71.34-31.4 70.33-27.2 63.6-27.2Q63.06-28.44 62.17-29.49 61.28-30.54 60.09-31.29 58.91-32.03 57.44-32.45 55.98-32.86 54.29-32.86L54.29-32.86Q51.07-32.86 48.34-31.56 45.6-30.25 43.6-28 41.6-25.76 40.48-22.77 39.35-19.78 39.35-16.41L39.35-16.41Q39.35-13.6 40.23-11.34 41.11-9.08 42.58-7.51 44.04-5.93 45.97-5.09 47.9-4.25 50-4.25L50-4.25Q53.68-4.25 56.48-5.77 59.27-7.3 61.4-10.35L61.4-10.35ZM71.43-21.09L72.43-25.29 76.66-25.29 78.14-31.35 83.3-33.45 81.37-25.29 86.69-25.29 85.69-21.09 80.37-21.09 77.14-7.45Q77.02-6.96 76.91-6.46 76.8-5.96 76.8-5.4L76.8-5.4Q76.8-4.3 77.4-3.85 78-3.39 79.29-3.39L79.29-3.39Q80.68-3.39 82.64-4.2L82.64-4.2 83.05-0.71Q81.76-0.1 80.56 0.26 79.37 0.61 77.9 0.61L77.9 0.61Q76.36 0.61 75.09 0.23 73.82-0.15 72.99-1.01 72.16-1.88 71.89-3.28 71.63-4.69 72.09-6.74L72.09-6.74 75.61-21.09 71.43-21.09ZM106.1 0L109.73-15.65Q110.42-18.53 109.28-20 108.15-21.46 105.49-21.46L105.49-21.46Q103.85-21.46 102.09-20.75 100.33-20.04 98.72-18.87L98.72-18.87 94.38 0 89.45 0 97.21-33.79 92.33-33.79 93.33-37.99 103.14-37.99 99.6-22.71Q101.38-24.1 103.41-24.93 105.44-25.76 107.59-25.76L107.59-25.76Q109.54-25.76 111.11-25.17 112.69-24.58 113.68-23.39 114.67-22.19 114.99-20.41 115.32-18.63 114.79-16.26L114.79-16.26 112-4.2 115.59-4.2 114.64 0 106.1 0ZM122.67-21.09L123.67-25.29 133.12-25.29 128.24-4.2 132.29-4.2 131.34 0 122.33 0 127.21-21.09 122.67-21.09ZM128.33-34.2L128.33-34.2Q128.33-34.86 128.59-35.45 128.85-36.04 129.29-36.46 129.73-36.89 130.31-37.15 130.9-37.4 131.58-37.4L131.58-37.4Q132.24-37.4 132.83-37.15 133.41-36.89 133.84-36.46 134.27-36.04 134.52-35.45 134.78-34.86 134.78-34.2L134.78-34.2Q134.78-33.54 134.52-32.95 134.27-32.35 133.84-31.9 133.41-31.45 132.83-31.18 132.24-30.91 131.58-30.91L131.58-30.91Q130.9-30.91 130.31-31.18 129.73-31.45 129.29-31.9 128.85-32.35 128.59-32.95 128.33-33.54 128.33-34.2ZM140.08-21.09L141.08-25.29 150.62-25.29 150.01-22.71Q151.75-24.15 153.81-24.95 155.87-25.76 158.17-25.76L158.17-25.76Q160.12-25.76 161.69-25.17 163.27-24.58 164.27-23.39 165.27-22.19 165.59-20.41 165.91-18.63 165.37-16.26L165.37-16.26 162.59-4.2 166.17-4.2 165.22 0 156.68 0 160.31-15.65Q161-18.53 159.88-20 158.75-21.46 156.07-21.46L156.07-21.46Q154.16-21.46 152.45-20.64 150.74-19.82 149.21-18.36L149.21-18.36 144.98 0 140.03 0 144.91-21.09 140.08-21.09ZM189-1.56L189-1.56Q187.46-0.49 185.84-0.02 184.21 0.44 182.33 0.44L182.33 0.44Q180.26 0.44 178.45-0.37 176.65-1.17 175.31-2.56 173.98-3.96 173.21-5.85 172.45-7.74 172.45-9.91L172.45-9.91Q172.45-13.45 173.69-16.41 174.94-19.36 177.07-21.48 179.21-23.61 182.05-24.78 184.9-25.95 188.1-25.95L188.1-25.95Q189.93-25.95 191.54-25.4 193.15-24.85 194.17-23.97L194.17-23.97 194.49-25.29 199.45-25.29 193.64-0.29Q192.9 2.88 191.68 5.11 190.46 7.35 188.71 8.76 186.95 10.18 184.62 10.84 182.28 11.5 179.33 11.5L179.33 11.5Q177.99 11.5 176.55 11.28 175.11 11.06 173.73 10.61 172.35 10.16 171.13 9.47 169.91 8.79 168.98 7.86L168.98 7.86 172.13 4.3Q172.71 4.93 173.54 5.46 174.37 5.98 175.38 6.37 176.38 6.76 177.49 6.98 178.6 7.2 179.75 7.2L179.75 7.2Q181.5 7.2 182.94 6.82 184.38 6.45 185.52 5.51 186.65 4.57 187.5 2.97 188.34 1.37 189-1.56ZM183.48-3.76L183.48-3.76Q185.39-3.76 187.05-4.44 188.71-5.13 190.1-6.3L190.1-6.3 193.22-19.78Q192.59-20.58 191.24-21.17 189.9-21.75 187.73-21.75L187.73-21.75Q185.85-21.75 184.02-20.98 182.19-20.21 180.75-18.76 179.31-17.31 178.4-15.2 177.5-13.09 177.5-10.4L177.5-10.4Q177.5-8.84 177.94-7.6 178.38-6.37 179.16-5.52 179.94-4.66 181.05-4.21 182.16-3.76 183.48-3.76ZM218.66-18.26L218.66-18.26Q218.63-19.21 218.28-19.95 217.93-20.68 217.3-21.18 216.68-21.68 215.84-21.94 215-22.19 214.02-22.19L214.02-22.19Q213.04-22.19 212.17-21.96 211.29-21.73 210.63-21.26 209.97-20.8 209.59-20.14 209.21-19.48 209.21-18.65L209.21-18.65Q209.21-17.68 209.83-17.03 210.46-16.38 211.8-15.84L211.8-15.84 216.51-14.16Q218.66-13.38 219.78-11.73 220.91-10.08 220.91-7.74L220.91-7.74Q220.91-5.64 220.14-4.05 219.37-2.47 218-1.39 216.63-0.32 214.74 0.22 212.85 0.76 210.6 0.76L210.6 0.76Q209.24 0.76 207.99 0.54 206.75 0.32 205.68-0.13 204.62-0.59 203.83-1.26 203.03-1.93 202.59-2.81L202.59-2.81 200.01-2.81 201.01-7.01 206.16-7.01Q206.04-6.05 206.4-5.32 206.77-4.59 207.45-4.09 208.14-3.59 209.08-3.34 210.02-3.1 211.07-3.1L211.07-3.1Q212.12-3.1 213.03-3.37 213.95-3.64 214.63-4.15 215.31-4.66 215.72-5.42 216.12-6.18 216.12-7.15L216.12-7.15Q216.12-8.08 215.46-8.85 214.8-9.62 213.41-10.11L213.41-10.11 208.92-11.74Q206.75-12.6 205.57-14.25 204.4-15.89 204.4-17.94L204.4-17.94Q204.4-19.75 205.04-21.24 205.67-22.73 206.92-23.8 208.16-24.88 210.04-25.46 211.92-26.05 214.41-26.05L214.41-26.05Q215.85-26.05 217.07-25.77 218.29-25.49 219.25-25 220.2-24.51 220.88-23.86 221.56-23.22 221.98-22.46L221.98-22.46 224.71-22.46 223.71-18.26 218.66-18.26Z" fill="#d55d13" data-fill-palette-color="primary"></path></g></svg></g></svg></g><g transform="matrix(1,0,0,1,0,67.07876674762218)"><svg viewBox="0 0 208.98881279999995 21.821860263974756" height="21.821860263974756" width="208.98881279999995"><g transform="matrix(1,0,0,1,0,0)"><svg width="208.98881279999995" viewBox="1.1 -36.5 475.45 49.65" height="21.821860263974756" data-palette-color="#d97e39"><path d="M29.2-30.8L29.2-30.8Q29.1-31.75 27.93-32.13 26.75-32.5 24.5-32.95L24.5-32.95 24.65-34.4Q26.25-34.35 28.08-34.3 29.9-34.25 31.75-34.25L31.75-34.25Q33-34.25 33.8-34.27 34.6-34.3 35.33-34.33 36.05-34.35 37.1-34.4L37.1-34.4 37.25-32.95Q35-32.5 34.1-32.13 33.2-31.75 33.15-30.8L33.15-30.8Q32.95-26.2 32.85-21.58 32.75-16.95 32.6-12.35L32.6-12.35Q32.5-8.8 31.18-5.85 29.85-2.9 26.9-1.15 23.95 0.6 19 0.6L19 0.6Q14.8 0.6 11.83-0.4 8.85-1.4 7.25-4.08 5.65-6.75 5.55-11.8L5.55-11.8Q5.5-16.55 5.4-21.3 5.3-26.05 5.2-30.8L5.2-30.8Q5.2-31.75 4.28-32.13 3.35-32.5 1.1-32.95L1.1-32.95 1.25-34.4Q2.85-34.35 4.48-34.3 6.1-34.25 7.95-34.25L7.95-34.25Q9.85-34.25 11.38-34.3 12.9-34.35 14.45-34.4L14.45-34.4 14.6-32.95Q12.35-32.5 11.48-32.13 10.6-31.75 10.5-30.8L10.5-30.8Q10.5-30.8 10.38-29.5 10.25-28.2 10.15-25.03 10.05-21.85 10.05-16.1L10.05-16.1Q10.05-12.9 10.23-10.33 10.4-7.75 11.23-5.95 12.05-4.15 13.88-3.2 15.7-2.25 19-2.25L19-2.25Q22.4-2.25 24.48-3.3 26.55-4.35 27.68-6.3 28.8-8.25 29.2-10.95 29.6-13.65 29.6-16.95L29.6-16.95Q29.6-22.35 29.5-25.35 29.4-28.35 29.3-29.58 29.2-30.8 29.2-30.8ZM45.75-22.95L45.75-22.95 46.7-22.5 46.7-20.1Q47.75-20.7 49.35-21.38 50.95-22.05 52.8-22.53 54.65-23 56.35-23L56.35-23Q58.5-23 59.97-21.98 61.45-20.95 61.45-18.25L61.45-18.25 61.45-11.45Q61.45-7.8 61.57-5.85 61.7-3.9 61.82-3.15 61.95-2.4 61.95-2.4L61.95-2.4Q62-2.15 62.57-1.9 63.15-1.65 63.9-1.5 64.65-1.35 65.15-1.3L65.15-1.3 65 0.15Q63.8 0.05 62.35 0.03 60.9 0 59.6 0L59.6 0Q58.35 0 56.77 0.03 55.2 0.05 54 0.15L54 0.15 54.15-1.3Q54.7-1.35 55.4-1.5 56.1-1.65 56.67-1.9 57.25-2.15 57.3-2.4L57.3-2.4Q57.3-2.4 57.4-3.15 57.5-3.9 57.6-5.85 57.7-7.8 57.7-11.45L57.7-11.45 57.7-16.7Q57.7-18.55 56.62-19.23 55.55-19.9 53.95-19.9L53.95-19.9Q52.7-19.9 51.32-19.58 49.95-19.25 48.7-18.85 47.45-18.45 46.65-18.1L46.65-18.1Q46.65-16.85 46.62-15.25 46.6-13.65 46.6-11.45L46.6-11.45Q46.6-7.8 46.72-5.85 46.85-3.9 46.97-3.15 47.1-2.4 47.1-2.4L47.1-2.4Q47.15-2.15 47.72-1.9 48.3-1.65 49.05-1.5 49.8-1.35 50.3-1.3L50.3-1.3 50.15 0.15Q48.95 0.05 47.5 0.03 46.05 0 44.75 0L44.75 0Q43.5 0 41.92 0.03 40.35 0.05 39.15 0.15L39.15 0.15 39.3-1.3Q39.85-1.35 40.55-1.5 41.25-1.65 41.82-1.9 42.4-2.15 42.45-2.4L42.45-2.4Q42.45-2.4 42.55-3.15 42.65-3.9 42.75-5.85 42.85-7.8 42.85-11.45L42.85-11.45Q42.85-15.1 42.75-16.88 42.65-18.65 42.55-19.23 42.45-19.8 42.45-19.8L42.45-19.8 39.25-20.75 39.15-22.05Q40.05-22.05 41.27-22.18 42.5-22.3 43.7-22.53 44.9-22.75 45.75-22.95ZM74.65-17.6L74.65-17.6Q74.65-13.1 74.72-10.25 74.8-7.4 74.9-5.75 75-4.1 75.07-3.38 75.15-2.65 75.2-2.4L75.2-2.4Q75.25-2.15 75.9-1.9 76.55-1.65 77.37-1.5 78.2-1.35 78.7-1.3L78.7-1.3 78.55 0.15Q77.34 0.05 75.75 0.03 74.15 0 72.84 0L72.84 0Q71.59 0 69.87 0.03 68.15 0.05 66.95 0.15L66.95 0.15 67.09-1.3Q67.65-1.35 68.42-1.5 69.2-1.65 69.84-1.9 70.5-2.15 70.55-2.4L70.55-2.4Q70.55-2.4 70.59-3.13 70.65-3.85 70.72-5.63 70.8-7.4 70.84-10.53 70.9-13.65 70.9-18.5L70.9-18.5Q70.9-23.3 70.84-26.25 70.8-29.2 70.7-30.75 70.59-32.3 70.55-32.83 70.5-33.35 70.5-33.35L70.5-33.35 67.3-34.3 67.2-35.6Q68.09-35.6 69.32-35.73 70.55-35.85 71.75-36.08 72.95-36.3 73.8-36.5L73.8-36.5 74.75-36.05Q74.75-36.05 74.7-31.4 74.65-26.75 74.65-17.6ZM99.74-4.15L99.74-4.15 100.34-2.65Q98.79-1.4 96.72-0.48 94.64 0.45 92.14 0.45L92.14 0.45Q88.44 0.45 86.07-1.03 83.69-2.5 82.57-4.95 81.44-7.4 81.44-10.35L81.44-10.35Q81.44-12.75 82.12-15 82.79-17.25 84.19-19.05 85.59-20.85 87.89-21.93 90.19-23 93.39-23L93.39-23Q95.19-23 96.94-22.15 98.69-21.3 99.84-19.43 100.99-17.55 100.99-14.45L100.99-14.45 99.29-12.4Q99.09-12.45 98.62-12.45 98.14-12.45 97.44-12.45L97.44-12.45Q96.19-12.45 94.49-12.43 92.79-12.4 91.04-12.35 89.29-12.3 87.84-12.23 86.39-12.15 85.69-12.1L85.69-12.1 85.69-11.65Q85.69-6.95 87.67-4.75 89.64-2.55 92.79-2.55L92.79-2.55Q94.64-2.55 96.29-2.95 97.94-3.35 99.74-4.15ZM96.49-16L96.49-16Q96.49-17.7 95.82-18.68 95.14-19.65 94.17-20.1 93.19-20.55 92.29-20.55L92.29-20.55Q89.84-20.55 88.19-18.63 86.54-16.7 85.99-14.15L85.99-14.15 96.34-14.55Q96.49-15.3 96.49-16ZM124.39-2.6L124.39-2.6 124.89-1.3Q122.99 0.45 120.74 0.45L120.74 0.45Q119.49 0.45 118.49-0.33 117.49-1.1 117.24-2.8L117.24-2.8Q115.39-1.4 113.57-0.48 111.74 0.45 109.64 0.45L109.64 0.45Q107.64 0.45 106.07-0.8 104.49-2.05 104.49-4.75L104.49-4.75Q104.49-6.55 105.64-8.28 106.79-10 109.57-11.23 112.34-12.45 117.09-12.75L117.09-12.75 117.09-17.4Q117.09-18.85 116.02-19.58 114.94-20.3 113.44-20.3L113.44-20.3Q111.24-20.3 110.19-19.25 109.14-18.2 109.14-16.65L109.14-16.65Q109.14-16.05 109.29-15.3L109.29-15.3 108.19-14.8Q107.14-15.35 106.29-16.32 105.44-17.3 105.44-17.7L105.44-17.7Q105.44-18.05 106.07-18.9 106.69-19.75 107.94-20.7 109.19-21.65 110.99-22.33 112.79-23 115.14-23L115.14-23Q116.69-23 117.97-22.55 119.24-22.1 119.99-20.95 120.74-19.8 120.74-17.65L120.74-17.65Q120.74-17.15 120.77-15.85 120.79-14.55 120.84-12.85 120.89-11.15 120.92-9.43 120.94-7.7 120.99-6.4 121.04-5.1 121.04-4.6L121.04-4.6Q121.09-3.25 121.62-2.73 122.14-2.2 122.84-2.2L122.84-2.2Q123.14-2.2 123.54-2.3 123.94-2.4 124.39-2.6ZM117.09-4.7L117.09-4.7 117.09-10.5Q112.69-10.4 110.69-8.85 108.69-7.3 108.69-5.55L108.69-5.55Q108.69-4.05 109.59-3.3 110.49-2.55 111.94-2.55L111.94-2.55Q113.04-2.55 114.37-3.08 115.69-3.6 117.09-4.7ZM135.04-23L135.04-23Q138.14-23 139.86-22.38 141.59-21.75 141.59-21.75L141.59-21.75Q141.59-20.65 141.64-19.25 141.69-17.85 141.89-16.8L141.89-16.8 140.59-16.35Q139.94-19 138.74-19.95 137.54-20.9 135.64-20.9L135.64-20.9Q133.94-20.9 132.91-19.95 131.89-19 131.89-17.7L131.89-17.7Q131.89-16.8 132.44-15.83 132.99-14.85 134.49-14L134.49-14 139.59-11.2Q141.14-10.35 142.01-9.05 142.89-7.75 142.89-5.85L142.89-5.85Q142.89-4.35 142.09-2.9 141.29-1.45 139.51-0.5 137.74 0.45 134.89 0.45L134.89 0.45Q133.39 0.45 131.46 0.15 129.54-0.15 127.39-0.8L127.39-0.8Q127.54-1.55 127.66-2.63 127.79-3.7 127.89-4.78 127.99-5.85 127.99-6.55L127.99-6.55 129.29-7Q129.74-5.25 130.19-3.98 130.64-2.7 131.61-2.05 132.59-1.4 134.59-1.4L134.59-1.4Q136.74-1.4 137.84-2.45 138.94-3.5 138.94-4.8L138.94-4.8Q138.94-5.75 138.36-6.65 137.79-7.55 136.59-8.2L136.59-8.2 131.19-11.2Q129.49-12.1 128.69-13.55 127.89-15 127.89-16.55L127.89-16.55Q127.89-18.15 128.71-19.63 129.54-21.1 131.14-22.05 132.74-23 135.04-23ZM152.79-18.1L152.79-18.1Q152.79-13.15 152.86-10.08 152.94-7 153.04-5.35 153.14-3.7 153.24-3.08 153.34-2.45 153.34-2.4L153.34-2.4Q153.39-2.15 153.96-1.9 154.54-1.65 155.29-1.5 156.04-1.35 156.54-1.3L156.54-1.3 156.39 0.15Q155.19 0.05 153.74 0.03 152.29 0 150.99 0L150.99 0Q149.74 0 148.16 0.03 146.59 0.05 145.39 0.15L145.39 0.15 145.54-1.3Q146.09-1.35 146.79-1.5 147.49-1.65 148.06-1.9 148.64-2.15 148.69-2.4L148.69-2.4Q148.69-2.4 148.74-3.13 148.79-3.85 148.86-5.63 148.94-7.4 148.99-10.53 149.04-13.65 149.04-18.45L149.04-18.45Q149.04-23.3 148.99-26.25 148.94-29.2 148.84-30.75 148.74-32.3 148.69-32.83 148.64-33.35 148.64-33.35L148.64-33.35 145.44-34.3 145.34-35.6Q146.24-35.6 147.46-35.73 148.69-35.85 149.89-36.08 151.09-36.3 151.94-36.5L151.94-36.5 152.89-36.05Q152.89-36.05 152.84-31.88 152.79-27.7 152.79-20.1L152.79-20.1Q153.84-20.7 155.54-21.38 157.24-22.05 159.16-22.53 161.09-23 162.79-23L162.79-23Q164.94-23 166.41-21.98 167.89-20.95 167.89-18.25L167.89-18.25 167.89-11.45Q167.89-7.8 168.01-5.85 168.14-3.9 168.26-3.15 168.39-2.4 168.39-2.4L168.39-2.4Q168.44-2.15 169.01-1.9 169.59-1.65 170.34-1.5 171.09-1.35 171.59-1.3L171.59-1.3 171.44 0.15Q170.24 0.05 168.79 0.03 167.34 0 166.04 0L166.04 0Q164.79 0 163.21 0.03 161.64 0.05 160.44 0.15L160.44 0.15 160.59-1.3Q161.14-1.35 161.84-1.5 162.54-1.65 163.11-1.9 163.69-2.15 163.74-2.4L163.74-2.4Q163.74-2.4 163.84-3.15 163.94-3.9 164.04-5.85 164.14-7.8 164.14-11.45L164.14-11.45 164.14-16.7Q164.14-18.55 163.06-19.23 161.99-19.9 160.39-19.9L160.39-19.9Q159.14-19.9 157.66-19.58 156.19-19.25 154.89-18.85 153.59-18.45 152.79-18.1ZM180.43-22.95L180.43-22.95 181.38-22.5Q181.38-21.85 181.36-20.5 181.33-19.15 181.33-17.53 181.33-15.9 181.31-14.28 181.28-12.65 181.28-11.45L181.28-11.45Q181.28-7.8 181.41-5.85 181.53-3.9 181.66-3.15 181.78-2.4 181.78-2.4L181.78-2.4Q181.83-2.15 182.51-1.9 183.18-1.65 184.01-1.5 184.83-1.35 185.33-1.3L185.33-1.3 185.18 0.15Q183.98 0.05 182.36 0.03 180.73 0 179.43 0L179.43 0Q178.18 0 176.43 0.03 174.68 0.05 173.48 0.15L173.48 0.15 173.63-1.3Q174.18-1.35 174.98-1.5 175.78-1.65 176.43-1.9 177.08-2.15 177.13-2.4L177.13-2.4Q177.13-2.4 177.23-3.15 177.33-3.9 177.43-5.85 177.53-7.8 177.53-11.45L177.53-11.45Q177.53-15.1 177.43-16.88 177.33-18.65 177.23-19.23 177.13-19.8 177.13-19.8L177.13-19.8 173.93-20.75 173.83-22.05Q174.73-22.05 175.96-22.18 177.18-22.3 178.38-22.53 179.58-22.75 180.43-22.95ZM179.28-28.15L179.28-28.15Q178.18-28.15 177.43-28.93 176.68-29.7 176.68-30.85L176.68-30.85Q176.68-31.95 177.43-32.7 178.18-33.45 179.28-33.45L179.28-33.45Q180.38-33.45 181.13-32.7 181.88-31.95 181.88-30.85L181.88-30.85Q181.88-29.7 181.13-28.93 180.38-28.15 179.28-28.15ZM193.88-22.95L193.88-22.95 194.83-22.5 194.83-20.1Q195.88-20.7 197.48-21.38 199.08-22.05 200.93-22.53 202.78-23 204.48-23L204.48-23Q206.63-23 208.11-21.98 209.58-20.95 209.58-18.25L209.58-18.25 209.58-11.45Q209.58-7.8 209.71-5.85 209.83-3.9 209.96-3.15 210.08-2.4 210.08-2.4L210.08-2.4Q210.13-2.15 210.71-1.9 211.28-1.65 212.03-1.5 212.78-1.35 213.28-1.3L213.28-1.3 213.13 0.15Q211.93 0.05 210.48 0.03 209.03 0 207.73 0L207.73 0Q206.48 0 204.91 0.03 203.33 0.05 202.13 0.15L202.13 0.15 202.28-1.3Q202.83-1.35 203.53-1.5 204.23-1.65 204.81-1.9 205.38-2.15 205.43-2.4L205.43-2.4Q205.43-2.4 205.53-3.15 205.63-3.9 205.73-5.85 205.83-7.8 205.83-11.45L205.83-11.45 205.83-16.7Q205.83-18.55 204.76-19.23 203.68-19.9 202.08-19.9L202.08-19.9Q200.83-19.9 199.46-19.58 198.08-19.25 196.83-18.85 195.58-18.45 194.78-18.1L194.78-18.1Q194.78-16.85 194.76-15.25 194.73-13.65 194.73-11.45L194.73-11.45Q194.73-7.8 194.86-5.85 194.98-3.9 195.11-3.15 195.23-2.4 195.23-2.4L195.23-2.4Q195.28-2.15 195.86-1.9 196.43-1.65 197.18-1.5 197.93-1.35 198.43-1.3L198.43-1.3 198.28 0.15Q197.08 0.05 195.63 0.03 194.18 0 192.88 0L192.88 0Q191.63 0 190.06 0.03 188.48 0.05 187.28 0.15L187.28 0.15 187.43-1.3Q187.98-1.35 188.68-1.5 189.38-1.65 189.96-1.9 190.53-2.15 190.58-2.4L190.58-2.4Q190.58-2.4 190.68-3.15 190.78-3.9 190.88-5.85 190.98-7.8 190.98-11.45L190.98-11.45Q190.98-15.1 190.88-16.88 190.78-18.65 190.68-19.23 190.58-19.8 190.58-19.8L190.58-19.8 187.38-20.75 187.28-22.05Q188.18-22.05 189.41-22.18 190.63-22.3 191.83-22.53 193.03-22.75 193.88-22.95ZM231.83-21.45L231.83-21.45Q232.13-21.9 232.8-22.7 233.48-23.5 234.3-24.15 235.13-24.8 235.83-24.8L235.83-24.8Q236.08-24.8 236.6-24.28 237.13-23.75 237.65-22.95 238.18-22.15 238.38-21.3L238.38-21.3 237.63-20.35Q237.28-20.55 236.7-20.68 236.13-20.8 235.43-20.8L235.43-20.8Q234.93-20.8 234.33-20.68 233.73-20.55 233.13-20.25L233.13-20.25Q233.98-19.25 234.43-17.82 234.88-16.4 234.88-14.4L234.88-14.4Q234.88-12.45 233.95-10.55 233.03-8.65 231.03-7.4 229.03-6.15 225.78-6.15L225.78-6.15Q224.63-6.15 223.58-6.3L223.58-6.3Q222.73-5.2 222.23-4.38 221.73-3.55 221.73-3L221.73-3Q221.73-2.35 222.5-2.1 223.28-1.85 224.98-1.85L224.98-1.85 228.73-1.85Q233.53-1.85 235.85-0.25 238.18 1.35 238.18 4.25L238.18 4.25Q238.18 6.3 236.58 8.38 234.98 10.45 231.88 11.8 228.78 13.15 224.28 13.15L224.28 13.15Q222.03 13.15 219.95 12.65 217.88 12.15 216.53 11.1 215.18 10.05 215.18 8.45L215.18 8.45Q215.18 7.05 216.43 5.15 217.68 3.25 220.33 1.1L220.33 1.1Q218.78 0.75 217.98 0.1 217.18-0.55 217.18-1.35L217.18-1.35Q217.18-2.35 218.5-3.75 219.83-5.15 221.68-6.65L221.68-6.65Q219.28-7.4 217.95-9.3 216.63-11.2 216.63-14.7L216.63-14.7Q216.63-16.65 217.58-18.55 218.53-20.45 220.55-21.7 222.58-22.95 225.78-22.95L225.78-22.95Q227.58-22.95 229.13-22.63 230.68-22.3 231.83-21.45ZM230.58-13.9L230.58-13.9Q230.58-15.55 230.23-17.15 229.88-18.75 228.85-19.83 227.83-20.9 225.83-20.9L225.83-20.9Q224.28-20.9 223.28-20.2 222.28-19.5 221.78-18.48 221.28-17.45 221.08-16.43 220.88-15.4 220.88-14.7L220.88-14.7Q220.88-13.2 221.3-11.7 221.73-10.2 222.78-9.2 223.83-8.2 225.63-8.2L225.63-8.2Q227.58-8.2 228.63-9.2 229.68-10.2 230.1-11.55 230.53-12.9 230.58-13.9ZM219.38 6.8L219.38 6.8Q219.38 8.65 220.78 9.9 222.18 11.15 225.08 11.15L225.08 11.15Q227.78 11.15 229.78 10.13 231.78 9.1 232.88 7.58 233.98 6.05 233.98 4.65L233.98 4.65Q233.98 3.25 232.78 2.25 231.58 1.25 228.63 1.25L228.63 1.25 221.88 1.25Q220.63 2.65 220 4.08 219.38 5.5 219.38 6.8ZM259.17-22.95L259.17-22.95 260.12-22.5Q260.12-21.85 260.1-20.5 260.07-19.15 260.07-17.53 260.07-15.9 260.05-14.28 260.02-12.65 260.02-11.45L260.02-11.45Q260.02-7.8 260.15-5.85 260.27-3.9 260.4-3.15 260.52-2.4 260.52-2.4L260.52-2.4Q260.57-2.15 261.25-1.9 261.92-1.65 262.75-1.5 263.57-1.35 264.07-1.3L264.07-1.3 263.92 0.15Q262.72 0.05 261.1 0.03 259.47 0 258.17 0L258.17 0Q256.92 0 255.17 0.03 253.42 0.05 252.22 0.15L252.22 0.15 252.37-1.3Q252.92-1.35 253.72-1.5 254.52-1.65 255.17-1.9 255.82-2.15 255.87-2.4L255.87-2.4Q255.87-2.4 255.97-3.15 256.07-3.9 256.17-5.85 256.27-7.8 256.27-11.45L256.27-11.45Q256.27-15.1 256.17-16.88 256.07-18.65 255.97-19.23 255.87-19.8 255.87-19.8L255.87-19.8 252.67-20.75 252.57-22.05Q253.47-22.05 254.7-22.18 255.92-22.3 257.12-22.53 258.32-22.75 259.17-22.95ZM258.02-28.15L258.02-28.15Q256.92-28.15 256.17-28.93 255.42-29.7 255.42-30.85L255.42-30.85Q255.42-31.95 256.17-32.7 256.92-33.45 258.02-33.45L258.02-33.45Q259.12-33.45 259.87-32.7 260.62-31.95 260.62-30.85L260.62-30.85Q260.62-29.7 259.87-28.93 259.12-28.15 258.02-28.15ZM272.62-22.95L272.62-22.95 273.57-22.5 273.57-20.1Q274.62-20.7 276.22-21.38 277.82-22.05 279.67-22.53 281.52-23 283.22-23L283.22-23Q285.37-23 286.85-21.98 288.32-20.95 288.32-18.25L288.32-18.25 288.32-11.45Q288.32-7.8 288.45-5.85 288.57-3.9 288.7-3.15 288.82-2.4 288.82-2.4L288.82-2.4Q288.87-2.15 289.45-1.9 290.02-1.65 290.77-1.5 291.52-1.35 292.02-1.3L292.02-1.3 291.87 0.15Q290.67 0.05 289.22 0.03 287.77 0 286.47 0L286.47 0Q285.22 0 283.65 0.03 282.07 0.05 280.87 0.15L280.87 0.15 281.02-1.3Q281.57-1.35 282.27-1.5 282.97-1.65 283.55-1.9 284.12-2.15 284.17-2.4L284.17-2.4Q284.17-2.4 284.27-3.15 284.37-3.9 284.47-5.85 284.57-7.8 284.57-11.45L284.57-11.45 284.57-16.7Q284.57-18.55 283.5-19.23 282.42-19.9 280.82-19.9L280.82-19.9Q279.57-19.9 278.2-19.58 276.82-19.25 275.57-18.85 274.32-18.45 273.52-18.1L273.52-18.1Q273.52-16.85 273.5-15.25 273.47-13.65 273.47-11.45L273.47-11.45Q273.47-7.8 273.6-5.85 273.72-3.9 273.85-3.15 273.97-2.4 273.97-2.4L273.97-2.4Q274.02-2.15 274.6-1.9 275.17-1.65 275.92-1.5 276.67-1.35 277.17-1.3L277.17-1.3 277.02 0.15Q275.82 0.05 274.37 0.03 272.92 0 271.62 0L271.62 0Q270.37 0 268.8 0.03 267.22 0.05 266.02 0.15L266.02 0.15 266.17-1.3Q266.72-1.35 267.42-1.5 268.12-1.65 268.7-1.9 269.27-2.15 269.32-2.4L269.32-2.4Q269.32-2.4 269.42-3.15 269.52-3.9 269.62-5.85 269.72-7.8 269.72-11.45L269.72-11.45Q269.72-15.1 269.62-16.88 269.52-18.65 269.42-19.23 269.32-19.8 269.32-19.8L269.32-19.8 266.12-20.75 266.02-22.05Q266.92-22.05 268.15-22.18 269.37-22.3 270.57-22.53 271.77-22.75 272.62-22.95ZM300.62-22.95L300.62-22.95 301.57-22.5 301.57-20.1Q302.62-20.7 304.22-21.38 305.82-22.05 307.67-22.53 309.52-23 311.22-23L311.22-23Q313.37-23 314.84-21.98 316.32-20.95 316.32-18.25L316.32-18.25 316.32-11.45Q316.32-7.8 316.44-5.85 316.57-3.9 316.69-3.15 316.82-2.4 316.82-2.4L316.82-2.4Q316.87-2.15 317.44-1.9 318.02-1.65 318.77-1.5 319.52-1.35 320.02-1.3L320.02-1.3 319.87 0.15Q318.67 0.05 317.22 0.03 315.77 0 314.47 0L314.47 0Q313.22 0 311.64 0.03 310.07 0.05 308.87 0.15L308.87 0.15 309.02-1.3Q309.57-1.35 310.27-1.5 310.97-1.65 311.54-1.9 312.12-2.15 312.17-2.4L312.17-2.4Q312.17-2.4 312.27-3.15 312.37-3.9 312.47-5.85 312.57-7.8 312.57-11.45L312.57-11.45 312.57-16.7Q312.57-18.55 311.49-19.23 310.42-19.9 308.82-19.9L308.82-19.9Q307.57-19.9 306.19-19.58 304.82-19.25 303.57-18.85 302.32-18.45 301.52-18.1L301.52-18.1Q301.52-16.85 301.49-15.25 301.47-13.65 301.47-11.45L301.47-11.45Q301.47-7.8 301.59-5.85 301.72-3.9 301.84-3.15 301.97-2.4 301.97-2.4L301.97-2.4Q302.02-2.15 302.59-1.9 303.17-1.65 303.92-1.5 304.67-1.35 305.17-1.3L305.17-1.3 305.02 0.15Q303.82 0.05 302.37 0.03 300.92 0 299.62 0L299.62 0Q298.37 0 296.79 0.03 295.22 0.05 294.02 0.15L294.02 0.15 294.17-1.3Q294.72-1.35 295.42-1.5 296.12-1.65 296.69-1.9 297.27-2.15 297.32-2.4L297.32-2.4Q297.32-2.4 297.42-3.15 297.52-3.9 297.62-5.85 297.72-7.8 297.72-11.45L297.72-11.45Q297.72-15.1 297.62-16.88 297.52-18.65 297.42-19.23 297.32-19.8 297.32-19.8L297.32-19.8 294.12-20.75 294.02-22.05Q294.92-22.05 296.14-22.18 297.37-22.3 298.57-22.53 299.77-22.75 300.62-22.95ZM345.37-12.15L345.37-12.15Q345.37-9.75 344.69-7.5 344.02-5.25 342.62-3.45 341.22-1.65 338.94-0.6 336.67 0.45 333.42 0.45L333.42 0.45Q327.82 0.45 325.32-2.53 322.82-5.5 322.82-10.3L322.82-10.3Q322.82-12.7 323.49-14.95 324.17-17.2 325.57-19.03 326.97-20.85 329.27-21.93 331.57-23 334.77-23L334.77-23Q338.52-23 340.84-21.63 343.17-20.25 344.27-17.8 345.37-15.35 345.37-12.15ZM341.07-10.3L341.07-10.3Q341.07-12.85 340.49-15.2 339.92-17.55 338.44-19.05 336.97-20.55 334.22-20.55L334.22-20.55Q332.02-20.55 330.62-19.53 329.22-18.5 328.47-17 327.72-15.5 327.42-14 327.12-12.5 327.12-11.5L327.12-11.5Q327.12-9.05 327.77-6.88 328.42-4.7 329.92-3.33 331.42-1.95 333.97-1.95L333.97-1.95Q335.97-1.95 337.34-2.83 338.72-3.7 339.54-5.05 340.37-6.4 340.72-7.83 341.07-9.25 341.07-10.3ZM353.16-19.85L353.16-19.85Q353.16-19.65 354.64-15.48 356.11-11.3 358.56-3.3L358.56-3.3Q361.21-11.4 362.61-15.53 364.01-19.65 364.01-19.9L364.01-19.9Q364.01-21 361.26-21.35L361.26-21.35 361.11-22.8Q361.11-22.8 362.21-22.73 363.31-22.65 364.71-22.65L364.71-22.65Q365.66-22.65 366.84-22.7 368.01-22.75 368.91-22.78 369.81-22.8 369.81-22.8L369.81-22.8 369.96-21.35Q368.21-21.1 367.61-20.63 367.01-20.15 366.76-19.35L366.76-19.35 359.96 0 356.21 0.45 349.36-19.3Q349.16-19.85 348.56-20.48 347.96-21.1 346.31-21.35L346.31-21.35 346.16-22.8Q346.16-22.8 347.06-22.78 347.96-22.75 349.16-22.7 350.36-22.65 351.26-22.65L351.26-22.65Q352.21-22.65 353.36-22.7 354.51-22.75 355.34-22.78 356.16-22.8 356.16-22.8L356.16-22.8 356.31-21.35Q354.66-21.15 353.91-20.7 353.16-20.25 353.16-19.85ZM391.86-2.6L391.86-2.6 392.36-1.3Q390.46 0.45 388.21 0.45L388.21 0.45Q386.96 0.45 385.96-0.33 384.96-1.1 384.71-2.8L384.71-2.8Q382.86-1.4 381.04-0.48 379.21 0.45 377.11 0.45L377.11 0.45Q375.11 0.45 373.54-0.8 371.96-2.05 371.96-4.75L371.96-4.75Q371.96-6.55 373.11-8.28 374.26-10 377.04-11.23 379.81-12.45 384.56-12.75L384.56-12.75 384.56-17.4Q384.56-18.85 383.49-19.58 382.41-20.3 380.91-20.3L380.91-20.3Q378.71-20.3 377.66-19.25 376.61-18.2 376.61-16.65L376.61-16.65Q376.61-16.05 376.76-15.3L376.76-15.3 375.66-14.8Q374.61-15.35 373.76-16.32 372.91-17.3 372.91-17.7L372.91-17.7Q372.91-18.05 373.54-18.9 374.16-19.75 375.41-20.7 376.66-21.65 378.46-22.33 380.26-23 382.61-23L382.61-23Q384.16-23 385.44-22.55 386.71-22.1 387.46-20.95 388.21-19.8 388.21-17.65L388.21-17.65Q388.21-17.15 388.24-15.85 388.26-14.55 388.31-12.85 388.36-11.15 388.39-9.43 388.41-7.7 388.46-6.4 388.51-5.1 388.51-4.6L388.51-4.6Q388.56-3.25 389.09-2.73 389.61-2.2 390.31-2.2L390.31-2.2Q390.61-2.2 391.01-2.3 391.41-2.4 391.86-2.6ZM384.56-4.7L384.56-4.7 384.56-10.5Q380.16-10.4 378.16-8.85 376.16-7.3 376.16-5.55L376.16-5.55Q376.16-4.05 377.06-3.3 377.96-2.55 379.41-2.55L379.41-2.55Q380.51-2.55 381.84-3.08 383.16-3.6 384.56-4.7ZM408.41-3.55L408.41-3.55 409.01-1.9Q407.31-0.8 405.76-0.18 404.21 0.45 402.61 0.45L402.61 0.45Q400.46 0.45 398.93-0.6 397.41-1.65 397.41-4.55L397.41-4.55Q397.41-4.55 397.43-5.78 397.46-7 397.46-8.78 397.46-10.55 397.46-12.15L397.46-12.15Q397.46-14.65 397.43-16.73 397.41-18.8 397.36-20.3L397.36-20.3Q395.86-20.25 395.01-20.25 394.16-20.25 394.16-20.25L394.16-20.25 394.01-20.8 395.16-22.75Q395.16-22.75 395.68-22.68 396.21-22.6 397.26-22.55L397.26-22.55Q397.26-23.55 397.21-24.63 397.16-25.7 397.11-26.43 397.06-27.15 397.06-27.15L397.06-27.15 400.36-30.1 401.31-29.65Q401.31-29.65 401.28-28.58 401.26-27.5 401.23-25.9 401.21-24.3 401.21-22.6L401.21-22.6Q404.61-22.6 406.58-22.63 408.56-22.65 408.56-22.65L408.56-22.65 408.81-22.05 407.01-20.05Q407.01-20.05 405.66-20.15 404.31-20.25 401.21-20.3L401.21-20.3 401.21-13.6Q401.21-10.6 401.23-8.65 401.26-6.7 401.36-4.65L401.36-4.65Q401.46-3.4 402.21-2.9 402.96-2.4 404.01-2.4L404.01-2.4Q405.16-2.4 406.38-2.8 407.61-3.2 408.41-3.55ZM417.26-22.95L417.26-22.95 418.21-22.5Q418.21-21.85 418.18-20.5 418.16-19.15 418.16-17.53 418.16-15.9 418.13-14.28 418.11-12.65 418.11-11.45L418.11-11.45Q418.11-7.8 418.23-5.85 418.36-3.9 418.48-3.15 418.61-2.4 418.61-2.4L418.61-2.4Q418.66-2.15 419.33-1.9 420.01-1.65 420.83-1.5 421.66-1.35 422.16-1.3L422.16-1.3 422.01 0.15Q420.81 0.05 419.18 0.03 417.56 0 416.26 0L416.26 0Q415.01 0 413.26 0.03 411.51 0.05 410.31 0.15L410.31 0.15 410.46-1.3Q411.01-1.35 411.81-1.5 412.61-1.65 413.26-1.9 413.91-2.15 413.96-2.4L413.96-2.4Q413.96-2.4 414.06-3.15 414.16-3.9 414.26-5.85 414.36-7.8 414.36-11.45L414.36-11.45Q414.36-15.1 414.26-16.88 414.16-18.65 414.06-19.23 413.96-19.8 413.96-19.8L413.96-19.8 410.76-20.75 410.66-22.05Q411.56-22.05 412.78-22.18 414.01-22.3 415.21-22.53 416.41-22.75 417.26-22.95ZM416.11-28.15L416.11-28.15Q415.01-28.15 414.26-28.93 413.51-29.7 413.51-30.85L413.51-30.85Q413.51-31.95 414.26-32.7 415.01-33.45 416.11-33.45L416.11-33.45Q417.21-33.45 417.96-32.7 418.71-31.95 418.71-30.85L418.71-30.85Q418.71-29.7 417.96-28.93 417.21-28.15 416.11-28.15ZM447.45-12.15L447.45-12.15Q447.45-9.75 446.78-7.5 446.1-5.25 444.7-3.45 443.3-1.65 441.03-0.6 438.75 0.45 435.5 0.45L435.5 0.45Q429.9 0.45 427.4-2.53 424.9-5.5 424.9-10.3L424.9-10.3Q424.9-12.7 425.58-14.95 426.25-17.2 427.65-19.03 429.05-20.85 431.35-21.93 433.65-23 436.85-23L436.85-23Q440.6-23 442.93-21.63 445.25-20.25 446.35-17.8 447.45-15.35 447.45-12.15ZM443.15-10.3L443.15-10.3Q443.15-12.85 442.58-15.2 442-17.55 440.53-19.05 439.05-20.55 436.3-20.55L436.3-20.55Q434.1-20.55 432.7-19.53 431.3-18.5 430.55-17 429.8-15.5 429.5-14 429.2-12.5 429.2-11.5L429.2-11.5Q429.2-9.05 429.85-6.88 430.5-4.7 432-3.33 433.5-1.95 436.05-1.95L436.05-1.95Q438.05-1.95 439.43-2.83 440.8-3.7 441.63-5.05 442.45-6.4 442.8-7.83 443.15-9.25 443.15-10.3ZM457.15-22.95L457.15-22.95 458.1-22.5 458.1-20.1Q459.15-20.7 460.75-21.38 462.35-22.05 464.2-22.53 466.05-23 467.75-23L467.75-23Q469.9-23 471.38-21.98 472.85-20.95 472.85-18.25L472.85-18.25 472.85-11.45Q472.85-7.8 472.98-5.85 473.1-3.9 473.23-3.15 473.35-2.4 473.35-2.4L473.35-2.4Q473.4-2.15 473.98-1.9 474.55-1.65 475.3-1.5 476.05-1.35 476.55-1.3L476.55-1.3 476.4 0.15Q475.2 0.05 473.75 0.03 472.3 0 471 0L471 0Q469.75 0 468.18 0.03 466.6 0.05 465.4 0.15L465.4 0.15 465.55-1.3Q466.1-1.35 466.8-1.5 467.5-1.65 468.08-1.9 468.65-2.15 468.7-2.4L468.7-2.4Q468.7-2.4 468.8-3.15 468.9-3.9 469-5.85 469.1-7.8 469.1-11.45L469.1-11.45 469.1-16.7Q469.1-18.55 468.03-19.23 466.95-19.9 465.35-19.9L465.35-19.9Q464.1-19.9 462.73-19.58 461.35-19.25 460.1-18.85 458.85-18.45 458.05-18.1L458.05-18.1Q458.05-16.85 458.03-15.25 458-13.65 458-11.45L458-11.45Q458-7.8 458.13-5.85 458.25-3.9 458.38-3.15 458.5-2.4 458.5-2.4L458.5-2.4Q458.55-2.15 459.13-1.9 459.7-1.65 460.45-1.5 461.2-1.35 461.7-1.3L461.7-1.3 461.55 0.15Q460.35 0.05 458.9 0.03 457.45 0 456.15 0L456.15 0Q454.9 0 453.33 0.03 451.75 0.05 450.55 0.15L450.55 0.15 450.7-1.3Q451.25-1.35 451.95-1.5 452.65-1.65 453.23-1.9 453.8-2.15 453.85-2.4L453.85-2.4Q453.85-2.4 453.95-3.15 454.05-3.9 454.15-5.85 454.25-7.8 454.25-11.45L454.25-11.45Q454.25-15.1 454.15-16.88 454.05-18.65 453.95-19.23 453.85-19.8 453.85-19.8L453.85-19.8 450.65-20.75 450.55-22.05Q451.45-22.05 452.68-22.18 453.9-22.3 455.1-22.53 456.3-22.75 457.15-22.95Z" opacity="1" transform="matrix(1,0,0,1,0,0)" fill="#d97e39" class="slogan-text-1" data-fill-palette-color="secondary" id="text-1"></path></svg></g></svg></g></svg></g></svg></g><g><svg viewBox="0 0 73.54924247647796 122.86066653002702" height="122.86066653002702" width="73.54924247647796"><g><svg xmlns="http://www.w3.org/2000/svg" xml:space="preserve" viewBox="22.258098542199008 3.6574574522747043 55.48462405580429 92.6845425477253" x="0" y="0" height="122.86066653002702" width="73.54924247647796" class="icon-icon-0" data-fill-palette-color="accent" id="icon-0"><path d="M48.075 24.534a3.75 3.75 0 0 0-1.963 2.506 6.4 6.4 0 0 1 1.312-0.882c2.287-1.159 4.846-0.791 5.993 0.781a3.763 3.763 0 0 0-5.342-2.405M45.795 23.688a3.205 3.205 0 0 0-2.946 5.48 5.4 5.4 0 0 1-0.114-1.341c0.082-2.182 1.414-3.937 3.06-4.139M40.272 27.297a2.587 2.587 0 0 0 2.283 4.476 4.4 4.4 0 0 1-0.942-0.541c-1.412-1.057-1.963-2.75-1.341-3.935M57.604 38.726a5.765 5.765 0 0 0-6.329-8.799 10 10 0 0 1 2.154 1.112c3.245 2.214 4.64 5.925 3.374 8.627 0.295-0.277 0.563-0.594 0.801-0.94M44.636 48.831a7.7 7.7 0 0 0 1.638 0.305 7.77 7.77 0 0 0 8.356-7.138 7.75 7.75 0 0 0-2.308-6.16c0.179 1.036 0.234 2.134 0.145 3.264-0.415 5.279-3.821 9.398-7.831 9.729M43.501 47.904a9.77 9.77 0 0 0 4.53-6.928 16.6 16.6 0 0 1-3.203 2.576c-5.667 3.51-12.379 3.121-15.7-0.7 0.23 0.647 0.534 1.281 0.909 1.888 2.844 4.591 8.874 6.009 13.464 3.164" fill="#000000" data-fill-palette-color="accent"></path><path d="M40.5 41.158a20 20 0 0 1-4.881-0.847c-7.688-2.332-12.679-8.717-11.864-14.764a11.8 11.8 0 0 0-0.986 2.326c-1.89 6.227 1.627 12.812 7.856 14.703a11.77 11.77 0 0 0 9.875-1.418" fill="#000000" data-fill-palette-color="accent"></path><path d="M34.275 35.691a23.5 23.5 0 0 1-2.922-5.007c-3.709-8.64-1.762-17.922 4.265-21.752-0.952 0.185-1.897 0.472-2.824 0.87-6.999 3.006-10.238 11.121-7.232 18.119a13.77 13.77 0 0 0 8.713 7.77" fill="#000000" data-fill-palette-color="accent"></path><path d="M34.229 26.377a26.8 26.8 0 0 1 1.951-6.348c4.405-9.828 13.74-15.39 21.644-13.283a15.7 15.7 0 0 0-2.926-1.705c-7.965-3.566-17.314-0.001-20.88 7.963a15.77 15.77 0 0 0 0.211 13.373" fill="#000000" data-fill-palette-color="accent"></path><path d="M76.108 21.823a17.7 17.7 0 0 0-0.845-2.919C71.733 9.727 61.427 5.146 52.249 8.678c-5.12 1.968-8.808 6.046-10.457 10.857a30.2 30.2 0 0 1 6.606-3.523c10.801-4.156 22.104-1.639 27.155 5.511 0.521 1.372 3.908 11.079-0.327 20.778-0.333 0.625-8.172 15.354-8.971 17.465-0.013 0.035-1.305 3.547-1.542 6.251 0 0.057-0.053 5.534-2.562 8.486H37.548v0.984H62.34c2.678-2.967 2.794-9.254 2.794-9.473 0.231-2.632 1.503-6.077 1.515-6.111 0.79-2.086 8.868-17.258 8.956-17.425 3.978-9.113 1.343-18.224 0.503-20.655M62.331 77.78c0 0.748-0.71 1.353-1.588 1.353H39.134c-0.877 0-1.586-0.604-1.586-1.353v-0.252c0-0.741 0.708-1.347 1.586-1.347h21.609c0.878 0 1.588 0.605 1.588 1.347zM62.331 81.798c0 0.746-0.71 1.351-1.588 1.351H39.134c-0.877 0-1.586-0.604-1.586-1.351v-0.25c0-0.745 0.708-1.348 1.586-1.348h21.609c0.878 0 1.588 0.603 1.588 1.348zM62.1 85.814c0 0.732-0.698 1.324-1.558 1.324H39.336c-0.86 0-1.556-0.592-1.556-1.324v-0.243c0-0.732 0.696-1.324 1.556-1.324h21.206c0.859 0 1.558 0.592 1.558 1.324zM61.066 89.59c0 0.669-0.636 1.213-1.42 1.213H40.235c-0.787 0-1.426-0.544-1.426-1.213v-0.226c0-0.673 0.639-1.214 1.426-1.214h19.412c0.784 0 1.42 0.541 1.42 1.214zM58.932 93.113c0 0.54-0.516 0.978-1.151 0.978H42.096c-0.634 0-1.15-0.438-1.15-0.978v-0.182c0-0.544 0.516-0.979 1.15-0.979H57.78c0.636 0 1.151 0.435 1.151 0.979zM55.623 95.72c0 0.343-0.326 0.622-0.727 0.622h-9.915c-0.398 0-0.725-0.279-0.725-0.622v-0.111c0-0.345 0.327-0.619 0.725-0.619h9.915c0.4 0 0.727 0.274 0.727 0.619z" fill="#000000" data-fill-palette-color="accent"></path></svg></g></svg></g></svg></g></svg></g></svg></g><g><path d="M0 123.6c0-68.262 55.338-123.6 123.6-123.6 50.418 0 93.785 30.188 113.013 73.474h-1.982c-19.109-42.261-61.636-71.666-111.031-71.666-67.264 0-121.792 54.528-121.792 121.792 0 67.264 54.528 121.792 121.792 121.792 49.395 0 91.923-29.405 111.031-71.666l1.982 0c-19.228 43.286-62.595 73.474-113.013 73.474-68.262 0-123.6-55.338-123.6-123.6z" fill="#d97e39" stroke="transparent" data-fill-palette-color="tertiary"></path></g></svg></g><defs></defs></svg><rect width="395.52" height="247.2" fill="none" stroke="none" visibility="hidden"></rect></g></svg></g></svg>